<svg xmlns="http://www.w3.org/2000/svg" xmlns:xlink="http://www.w3.org/1999/xlink" viewBox="0 0 129.07 100"><defs><style>.cls-1{fill:none;}.cls-2{fill:url(#linear-gradient);}.cls-3{fill:#fff;}.cls-4{fill:url(#linear-gradient-2);}.cls-5{fill:url(#linear-gradient-3);}.cls-6{fill:url(#linear-gradient-4);}.cls-7{fill:url(#linear-gradient-5);}</style><linearGradient id="linear-gradient" x1="63.11" y1="1170.81" x2="63.11" y2="1071.86" gradientTransform="matrix(1, 0, 0, -1, 0, 1151.6)" gradientUnits="userSpaceOnUse"><stop offset="0" stop-color="#53c1b6"/><stop offset="1" stop-color="#72aed2"/></linearGradient><linearGradient id="linear-gradient-2" x1="96.58" y1="1057.66" x2="96.58" y2="1188.52" gradientTransform="matrix(1, 0, 0, -1, 0, 1151.6)" gradientUnits="userSpaceOnUse"><stop offset="0" stop-color="#12557b"/><stop offset="0.15" stop-color="#1a5e81"/><stop offset="0.39" stop-color="#317790"/><stop offset="0.7" stop-color="#569fa9"/><stop offset="1" stop-color="#80cdc5"/></linearGradient><linearGradient id="linear-gradient-3" x1="13.71" y1="1104.39" x2="44.87" y2="1104.39" gradientTransform="matrix(1, 0, 0, -1, 0, 1151.6)" gradientUnits="userSpaceOnUse"><stop offset="0" stop-color="#1e3d72"/><stop offset="1" stop-color="#557894"/></linearGradient><linearGradient id="linear-gradient-4" x1="13.71" y1="1092.14" x2="44.87" y2="1092.14" xlink:href="#linear-gradient-3"/><linearGradient id="linear-gradient-5" x1="96.62" y1="1074.7" x2="96.62" y2="1136.95" xlink:href="#linear-gradient"/></defs><title>9t logo</title><g id="Layer_2" data-name="Layer 2"><g id="Layer_1-2" data-name="Layer 1"><path class="cls-1" d="M91.51,31.78a26.93,26.93,0,0,0-52.37-.88l-.73,2.88-.54,2.11-2.13-.45-2.9-.61a18.6,18.6,0,0,0-4-.39,18.35,18.35,0,0,0,0,36.7H78.4A25.19,25.19,0,0,1,91.51,31.78Z"/><path class="cls-2" d="M110.71,33.87A25.23,25.23,0,1,1,78.4,71.13H28.89a18.35,18.35,0,0,1,0-36.7,18.6,18.6,0,0,1,4,.39l2.9.61,2.13.45.54-2.11.73-2.88a26.93,26.93,0,0,1,52.37.88,24.19,24.19,0,0,1,10.72-.72,37.59,37.59,0,0,0-72-7.33c-.46,0-.93,0-1.39,0a28.91,28.91,0,0,0,0,57.81h72.63a24.7,24.7,0,0,0,9.18-47.64Z"/><path class="cls-3" d="M110.71,33.87a25.07,25.07,0,0,0-8.47-2.82c.06.34.15.68.2,1A24.46,24.46,0,0,1,110.71,33.87Z"/><path class="cls-4" d="M129.07,53.87A32.49,32.49,0,1,0,96.58,86.37c1,0,1.92,0,2.86-.06L90.1,100h14l16.33-24A32.54,32.54,0,0,0,129.07,53.87ZM96.58,76.15a22.29,22.29,0,1,1,19.08-10.79l-1.55-.52-5.19,7.58A22.14,22.14,0,0,1,96.58,76.15Z"/><rect class="cls-5" x="22.77" y="43.71" width="9.7" height="6.99"/><rect class="cls-6" x="22.77" y="55.96" width="9.7" height="6.99"/><path class="cls-7" d="M119.18,52.19V29.67l-7.59,7.54a21.74,21.74,0,0,0-15-5.94,22.51,22.51,0,1,0,21.67,28.16l.38-1.38h-7.91l-.26.72a14.61,14.61,0,0,1-13.9,9.93,14.9,14.9,0,1,1,0-29.81,14.24,14.24,0,0,1,9.59,3.66l-9.68,9.63h22.7Z"/></g></g></svg>