<svg xmlns="http://www.w3.org/2000/svg" xmlns:xlink="http://www.w3.org/1999/xlink" viewBox="860 504.254 101.5 48.192">
  <defs>
    <style>
      .cls-1 {
        fill: url(#radial-gradient);
      }

      .cls-2 {
        fill: #fff;
      }
    </style>
    <radialGradient id="radial-gradient" cx="695.168" cy="496.711" r="93.08" gradientUnits="userSpaceOnUse">
      <stop offset="0" stop-color="#9dd5f6"/>
      <stop offset="0.071" stop-color="#98d3f5"/>
      <stop offset="0.157" stop-color="#89cef3"/>
      <stop offset="0.252" stop-color="#70c6ef"/>
      <stop offset="0.351" stop-color="#4ebbea"/>
      <stop offset="0.455" stop-color="#23ade3"/>
      <stop offset="0.5" stop-color="#0da6e0"/>
      <stop offset="1" stop-color="#2e77bc"/>
    </radialGradient>
  </defs>
  <g id="American_Express" transform="translate(129.4 129.954)">
    <path id="Path_1" data-name="Path 1" class="cls-1" d="M831.556,374.3H730.7v48.192H831.556V412.9a3.865,3.865,0,0,0,.608-2.218,3.491,3.491,0,0,0-.608-2.218" transform="translate(-0.064)"/>
    <path id="Path_2" data-name="Path 2" class="cls-2" d="M739.723,398.687l-1.932-4.723-1.932,4.723m46.618-1.86a2.509,2.509,0,0,1-1.4.25h-3.47V394.43h3.506a3.2,3.2,0,0,1,1.359.215,1.108,1.108,0,0,1,.608,1.038A1.361,1.361,0,0,1,782.477,396.827Zm24.579,1.86-1.968-4.723-1.968,4.723ZM761.261,403.8h-2.9v-9.3l-4.114,9.3h-2.5l-4.114-9.3v9.3h-5.8l-1.073-2.648h-5.9l-1.109,2.648h-3.077l5.08-11.878h4.222l4.83,11.234V391.925h4.615l3.721,8.05,3.4-8.05h4.723V403.8Zm11.556,0h-9.481V391.925h9.481v2.469H766.2v2.147h6.476v2.433H766.2v2.361h6.619Zm13.381-8.658a3.285,3.285,0,0,1-2,3.148,3.349,3.349,0,0,1,1.4,1,3.424,3.424,0,0,1,.465,2.182V403.8h-2.862v-1.5a3.486,3.486,0,0,0-.465-2.326c-.429-.429-1.038-.5-2.075-.5h-3.041V403.8h-2.826V391.925H781.3a6.673,6.673,0,0,1,3.435.572A2.808,2.808,0,0,1,786.2,395.145Zm4.508,8.658h-2.9V391.925h2.9Zm33.559,0h-4.007l-5.367-8.909V403.8h-5.76l-1.109-2.612h-5.9l-1.073,2.648h-3.327a6,6,0,0,1-4.114-1.324c-1-1-1.5-2.361-1.5-4.544a6.393,6.393,0,0,1,1.538-4.651,5.848,5.848,0,0,1,4.293-1.4h2.755v2.54H798a2.664,2.664,0,0,0-2.182.716,3.8,3.8,0,0,0-.823,2.683,4.064,4.064,0,0,0,.787,2.791,2.713,2.713,0,0,0,1.968.608h1.288l4.007-9.338h4.258L812.1,403.16V391.925h4.329l4.973,8.265v-8.265h2.9V403.8Zm-93.629,2.361h4.83l1.109-2.648h2.433l1.073,2.648H749.6v-2l.859,2.039h4.973l.859-2.039V406.2h23.685v-4.329h.465c.322,0,.429.036.429.572V406.2H793.1v-1.073a9.711,9.711,0,0,0,4.544,1H802.8l1.109-2.647h2.433l1.073,2.647h9.946v-2.5l1.5,2.5h7.943V389.6h-7.871v1.968l-1.109-1.968h-8.086v1.968l-1-1.968H797.826a9.7,9.7,0,0,0-4.723.966V389.6h-7.549v.966a4.8,4.8,0,0,0-3.22-.966H754.821l-1.86,4.258-1.9-4.258h-8.658v1.968l-.966-1.968h-7.406l-3.435,7.871.036,8.694Z" transform="translate(0 -9.826)"/>
    <path id="Path_3" data-name="Path 3" class="cls-2" d="M867.585,451.5h-5.152a2.114,2.114,0,0,0-1.145.215.937.937,0,0,0-.429.859.906.906,0,0,0,.608.894,3.084,3.084,0,0,0,1.109.143l1.538.036a4.548,4.548,0,0,1,3.22.966,1.789,1.789,0,0,1,.25.286m0,4.436c-.68,1-2.039,1.5-3.864,1.5h-5.474V458.3h5.438a1.634,1.634,0,0,0,1.145-.286,1,1,0,0,0,.322-.787.972.972,0,0,0-.358-.787,1.469,1.469,0,0,0-1-.25c-2.647-.107-5.975.072-5.975-3.685,0-1.717,1.109-3.542,4.079-3.542h5.653V446.6h-5.188a6.053,6.053,0,0,0-3.542.966V446.6h-7.764a5.548,5.548,0,0,0-3.4.966V446.6H833.811v.966a7.485,7.485,0,0,0-3.828-.966h-9.159v.966c-.859-.859-2.826-.966-4.007-.966H806.585l-2.326,2.54-2.182-2.54H786.8v16.565h14.991l2.4-2.576,2.29,2.576h9.231v-3.9h.894a9.493,9.493,0,0,0,3.936-.572v4.472h7.62v-4.329h.358c.465,0,.5.036.5.5v3.828h23.148a6.673,6.673,0,0,0,3.864-1.073v1.073h7.334a10,10,0,0,0,4.15-.751v-3.077Zm-11.306-4.758a3.35,3.35,0,0,1,.859,2.5c0,2.54-1.61,3.757-4.436,3.757h-5.51V458.3h5.51a1.634,1.634,0,0,0,1.145-.286,1.135,1.135,0,0,0,.322-.787.972.972,0,0,0-.358-.787,1.469,1.469,0,0,0-1-.25c-2.648-.107-5.975.072-5.975-3.685,0-1.717,1.073-3.542,4.043-3.542h5.689v2.54h-5.188a2.114,2.114,0,0,0-1.145.215.871.871,0,0,0-.429.859.906.906,0,0,0,.608.894,3.083,3.083,0,0,0,1.109.143l1.538.036A4.554,4.554,0,0,1,856.279,454.578Zm-25.581-.716a2.868,2.868,0,0,1-1.4.25h-3.435v-2.647h3.506a2.73,2.73,0,0,1,1.36.215,1.139,1.139,0,0,1,.572,1.073A1.309,1.309,0,0,1,830.7,453.863Zm1.717,1.467a3.127,3.127,0,0,1,1.4,1,3.424,3.424,0,0,1,.465,2.182v2.361h-2.862v-1.467a3.486,3.486,0,0,0-.465-2.326,2.732,2.732,0,0,0-2.075-.537h-3.005v4.329h-2.862V449h6.547a6.917,6.917,0,0,1,3.4.572,2.8,2.8,0,0,1,1.467,2.648A3.268,3.268,0,0,1,832.416,455.33ZM835.994,449h9.445v2.469h-6.655v2.147h6.476v2.433h-6.476v2.361h6.655v2.469h-9.445Zm-19.141,5.474H813.2v-3.005h3.685c1.037,0,1.717.429,1.717,1.467C818.642,453.934,817.962,454.471,816.853,454.471Zm-6.476,5.3-4.365-4.83,4.365-4.687Zm-11.234-1.4h-6.977v-2.361h6.225v-2.433h-6.225V451.43h7.12l3.113,3.47Zm22.54-5.474c0,3.292-2.469,3.971-4.937,3.971H813.2v3.971h-5.51l-3.506-3.935-3.614,3.935H789.34V448.961h11.413l3.506,3.9,3.614-3.9h9.052C819.143,449,821.683,449.605,821.683,452.9Z" transform="translate(-36.093 -46.433)"/>
  </g>
</svg>
