<svg xmlns="http://www.w3.org/2000/svg" viewBox="755 495.5 88.294 72.416">
  <defs>
    <style>
      .cls-1 {
        fill: none;
      }

      .cls-2 {
        fill: #ff5f00;
      }

      .cls-3 {
        fill: #eb001b;
      }

      .cls-4 {
        fill: #f79e1b;
      }
    </style>
  </defs>
  <g id="mc" transform="translate(432.4 249.7)">
    <rect id="Rectangle_1" data-name="Rectangle 1" class="cls-1" width="88.294" height="72.416" transform="translate(322.6 245.8)"/>
    <g id="Group_8" data-name="Group 8" transform="translate(331.682 254.882)">
      <g id="Group_7" data-name="Group 7" transform="translate(3.549 46.192)">
        <path id="XMLID_1775_" d="M352.8,345.76v-3.609a2.117,2.117,0,0,0-2.286-2.286,2.373,2.373,0,0,0-2.045,1.023,2.1,2.1,0,0,0-1.925-1.023,1.943,1.943,0,0,0-1.684.842v-.722H343.6v5.774h1.263v-3.188c0-1.022.541-1.5,1.383-1.5s1.263.541,1.263,1.5v3.188h1.263v-3.188a1.331,1.331,0,0,1,1.383-1.5c.842,0,1.263.541,1.263,1.5v3.188Zm18.705-5.774h-2.045v-1.744H368.2v1.744h-1.143v1.143H368.2v2.646c0,1.323.541,2.105,1.985,2.105a3.363,3.363,0,0,0,1.564-.421l-.361-1.083a1.979,1.979,0,0,1-1.083.3c-.6,0-.842-.361-.842-.962v-2.586h2.045Zm10.706-.12a1.7,1.7,0,0,0-1.5.842v-.722h-1.263v5.774h1.263v-3.248c0-.962.421-1.5,1.2-1.5a3.522,3.522,0,0,1,.782.12l.361-1.2a3.972,3.972,0,0,0-.842-.06Zm-16.179.6a4.128,4.128,0,0,0-2.346-.6c-1.443,0-2.406.722-2.406,1.865,0,.962.722,1.5,1.985,1.684l.6.06c.662.12,1.023.3,1.023.6,0,.421-.481.722-1.323.722a3.32,3.32,0,0,1-1.925-.6l-.6.962a4.253,4.253,0,0,0,2.466.722c1.684,0,2.646-.782,2.646-1.865,0-1.022-.782-1.564-1.985-1.744l-.6-.06c-.541-.06-.962-.18-.962-.541,0-.421.421-.662,1.083-.662a4.336,4.336,0,0,1,1.8.481Zm33.561-.6a1.7,1.7,0,0,0-1.5.842v-.722h-1.263v5.774h1.263v-3.248c0-.962.421-1.5,1.2-1.5a3.522,3.522,0,0,1,.782.12l.361-1.2a3.972,3.972,0,0,0-.842-.06Zm-16.119,3.007a2.889,2.889,0,0,0,3.067,3.007,2.993,2.993,0,0,0,2.045-.662l-.6-1.022a2.431,2.431,0,0,1-1.5.541,1.708,1.708,0,0,1-1.744-1.865,1.774,1.774,0,0,1,1.744-1.865,2.431,2.431,0,0,1,1.5.541l.6-1.022a2.993,2.993,0,0,0-2.045-.662,2.889,2.889,0,0,0-3.067,3.007Zm11.668,0v-2.887h-1.263v.722a2.173,2.173,0,0,0-1.8-.842,3.01,3.01,0,0,0,0,6.015,2.024,2.024,0,0,0,1.8-.842v.722h1.263Zm-4.631,0a1.748,1.748,0,1,1,3.488,0,1.748,1.748,0,1,1-3.488,0Zm-15.1-3.007a3.009,3.009,0,0,0,.06,6.015,3.679,3.679,0,0,0,2.346-.782l-.6-.9a2.874,2.874,0,0,1-1.684.6,1.623,1.623,0,0,1-1.744-1.383h4.27v-.481c.06-1.865-1.022-3.067-2.646-3.067Zm0,1.083a1.407,1.407,0,0,1,1.443,1.383h-3.007a1.523,1.523,0,0,1,1.564-1.383Zm31.336,1.925V337.7H405.49v3.007a2.173,2.173,0,0,0-1.8-.842,3.01,3.01,0,0,0,0,6.015,2.024,2.024,0,0,0,1.8-.842v.722h1.263Zm-4.631,0a1.748,1.748,0,1,1,3.488,0,1.748,1.748,0,1,1-3.488,0Zm-42.222,0v-2.887h-1.263v.722a2.173,2.173,0,0,0-1.8-.842,3.01,3.01,0,0,0,0,6.015,2.024,2.024,0,0,0,1.8-.842v.722H359.9Zm-4.691,0a1.748,1.748,0,1,1,3.488,0,1.748,1.748,0,1,1-3.488,0Z" transform="translate(-343.6 -337.7)"/>
      </g>
      <g id="XMLID_328_" transform="translate(0)">
        <rect id="Rectangle_2" data-name="Rectangle 2" class="cls-2" width="18.946" height="34.043" transform="translate(25.562 4.631)"/>
        <path id="XMLID_330_" class="cls-3" d="M364.465,282.552a21.71,21.71,0,0,1,8.24-17.021,21.653,21.653,0,1,0,0,34.043A21.62,21.62,0,0,1,364.465,282.552Z" transform="translate(-337.7 -260.9)"/>
        <path id="Path_9" data-name="Path 9" class="cls-4" d="M431,282.552a21.63,21.63,0,0,1-35,17.021,21.7,21.7,0,0,0,0-34.043,21.63,21.63,0,0,1,35,17.021Z" transform="translate(-360.935 -260.9)"/>
      </g>
    </g>
  </g>
</svg>
