<svg xmlns="http://www.w3.org/2000/svg" viewBox="624.2 508.6 119.3 38.8">
  <defs>
    <style>
      .cls-1 {
        fill: #0066b3;
      }

      .cls-2 {
        fill: #faa634;
      }
    </style>
  </defs>
  <g id="Group_6" data-name="Group 6" transform="translate(613 457)">
    <g id="Group_5" data-name="Group 5">
      <path id="Path_4" data-name="Path 4" class="cls-1" d="M62.9,89.6H53.2l6.1-37.4H69Z"/>
      <path id="Path_5" data-name="Path 5" class="cls-1" d="M45,52.2,35.7,77.9l-1.1-5.5h0L31.3,55.6s-.4-3.4-4.6-3.4H11.4l-.2.6a37.051,37.051,0,0,1,10.2,4.3l8.5,32.5H40L55.5,52.2H45Z"/>
      <path id="Path_6" data-name="Path 6" class="cls-1" d="M121.6,89.6h8.9l-7.8-37.4h-7.8a4.507,4.507,0,0,0-4.5,2.8L95.9,89.6H106l2-5.6h12.4ZM110.9,76.3l5.1-14,2.9,14Z"/>
      <path id="Path_7" data-name="Path 7" class="cls-1" d="M96.6,61.2l1.4-8a28.76,28.76,0,0,0-8.8-1.6c-4.8,0-16.3,2.1-16.3,12.4,0,9.7,13.5,9.8,13.5,14.9s-12.1,4.2-16.1,1l-1.4,8.4a27.157,27.157,0,0,0,11,2.1c6.6,0,16.7-3.4,16.7-12.8C96.6,67.9,83,67,83,62.7,83,58.3,92.5,58.9,96.6,61.2Z"/>
    </g>
    <path id="Path_8" data-name="Path 8" class="cls-2" d="M34.6,72.4,31.3,55.6s-.4-3.4-4.6-3.4H11.4l-.2.6a36.455,36.455,0,0,1,14.4,7.3A28.565,28.565,0,0,1,34.6,72.4Z"/>
  </g>
</svg>
